<svg width="305" height="290" viewBox="0 0 305 290" fill="none" xmlns="http://www.w3.org/2000/svg">
<rect width="305" height="290" fill="#FF6900"/>
<path d="M102.843 234.435C89.4967 223.128 76.5547 206.571 68.0615 182.342C57.9506 155.69 60.7816 105.212 92.3278 72.9062C123.065 44.2348 158.656 43.4272 183.326 49.8883C192.628 52.3113 204.357 58.3686 211.232 63.2145C223.366 71.2909 227.814 78.5597 228.219 78.5597C228.219 76.9444 224.174 68.4641 220.535 64.4259C220.535 64.4259 218.108 61.5992 212.446 56.7533C205.975 51.9074 176.046 28.082 129.132 36.966C82.6213 45.4463 47.4352 83.4055 39.3464 121.769C30.0444 160.132 45.8174 199.302 71.7015 223.532C97.5855 247.761 130.345 252.607 130.345 252.607C130.345 252.607 115.785 245.742 102.843 234.435Z" fill="white"/>
<path d="M267.854 150.844C269.067 116.519 254.103 93.0973 254.103 93.0973C254.103 93.0973 252.89 95.1164 248.845 100.77C244.801 106.423 229.837 121.769 222.152 128.23C214.064 134.691 206.379 141.152 189.393 152.055C172.406 162.958 146.118 172.246 146.118 172.246C146.118 172.246 172.811 170.227 183.326 168.208C197.886 165.785 212.446 160.132 226.197 153.671C239.948 147.209 249.25 137.921 249.25 140.748C249.654 148.825 244.396 161.747 244.396 161.747C241.161 172.65 215.277 222.724 152.185 219.493C86.6657 216.263 70.0837 157.709 70.0837 157.709C70.0837 157.709 71.2971 190.822 95.9678 218.686C123.874 248.569 154.611 254.222 156.229 254.626C157.847 254.626 163.104 254.222 174.429 252.607C185.753 250.992 209.21 242.511 227.006 229.185C244.396 215.051 266.64 185.169 267.854 150.844Z" fill="#004B87"/>
</svg>
